<svg id="visual" viewBox="0 0 960 540" width="960" height="540" xmlns="http://www.w3.org/2000/svg" xmlns:xlink="http://www.w3.org/1999/xlink" version="1.1"><g stroke-width="1" stroke-linejoin="bevel"><path d="M460.7 289L497.3 326L518.3 299Z" fill="#161616" stroke="#161616"></path><path d="M460.7 289L403.7 381L497.3 326Z" fill="#2c2c2c" stroke="#2c2c2c"></path><path d="M460.7 289L357 284L403.7 381Z" fill="#3c3c3c" stroke="#3c3c3c"></path><path d="M403.7 381L433.7 423L497.3 326Z" fill="#555555" stroke="#555555"></path><path d="M497.3 326L647 394L518.3 299Z" fill="#242424" stroke="#242424"></path><path d="M520.3 160L440.7 166L460.7 289Z" fill="#4c4c4c" stroke="#4c4c4c"></path><path d="M460.7 289L440.7 166L357 284Z" fill="#343434" stroke="#343434"></path><path d="M518.3 299L520.3 160L460.7 289Z" fill="#4c4c4c" stroke="#4c4c4c"></path><path d="M433.7 423L525.3 452L497.3 326Z" fill="#161616" stroke="#161616"></path><path d="M518.3 299L645 260L520.3 160Z" fill="#0d0d0d" stroke="#0d0d0d"></path><path d="M647 394L645 260L518.3 299Z" fill="#4c4c4c" stroke="#4c4c4c"></path><path d="M357 284L352 382L403.7 381Z" fill="#161616" stroke="#161616"></path><path d="M403.7 381L352 382L433.7 423Z" fill="#444444" stroke="#444444"></path><path d="M440.7 166L329 206L357 284Z" fill="#000000" stroke="#000000"></path><path d="M357 284L197.3 366L352 382Z" fill="#1d1d1d" stroke="#1d1d1d"></path><path d="M525.3 452L647 394L497.3 326Z" fill="#242424" stroke="#242424"></path><path d="M645 260L641 173L520.3 160Z" fill="#444444" stroke="#444444"></path><path d="M525.3 452L606 458L647 394Z" fill="#161616" stroke="#161616"></path><path d="M641 173L561.3 103L520.3 160Z" fill="#555555" stroke="#555555"></path><path d="M520.3 160L448.7 77L440.7 166Z" fill="#555555" stroke="#555555"></path><path d="M440.7 166L330 88L329 206Z" fill="#444444" stroke="#444444"></path><path d="M561.3 103L448.7 77L520.3 160Z" fill="#000000" stroke="#000000"></path><path d="M752.7 352L726.7 249L645 260Z" fill="#1d1d1d" stroke="#1d1d1d"></path><path d="M645 260L726.7 249L641 173Z" fill="#343434" stroke="#343434"></path><path d="M312 471L457.7 540L433.7 423Z" fill="#161616" stroke="#161616"></path><path d="M433.7 423L457.7 540L525.3 452Z" fill="#343434" stroke="#343434"></path><path d="M525.3 452L564.3 540L606 458Z" fill="#555555" stroke="#555555"></path><path d="M352 382L312 471L433.7 423Z" fill="#444444" stroke="#444444"></path><path d="M197.3 366L312 471L352 382Z" fill="#1d1d1d" stroke="#1d1d1d"></path><path d="M457.7 540L564.3 540L525.3 452Z" fill="#161616" stroke="#161616"></path><path d="M740.7 486L752.7 352L647 394Z" fill="#0d0d0d" stroke="#0d0d0d"></path><path d="M448.7 77L330 88L440.7 166Z" fill="#343434" stroke="#343434"></path><path d="M181.3 295L197.3 366L357 284Z" fill="#000000" stroke="#000000"></path><path d="M709.7 124L643 77L641 173Z" fill="#1d1d1d" stroke="#1d1d1d"></path><path d="M641 173L643 77L561.3 103Z" fill="#3c3c3c" stroke="#3c3c3c"></path><path d="M561.3 103L534.3 0L448.7 77Z" fill="#555555" stroke="#555555"></path><path d="M647 394L752.7 352L645 260Z" fill="#444444" stroke="#444444"></path><path d="M740.7 486L647 394L606 458Z" fill="#2c2c2c" stroke="#2c2c2c"></path><path d="M564.3 540L615 540L606 458Z" fill="#0d0d0d" stroke="#0d0d0d"></path><path d="M726.7 249L718.7 150L641 173Z" fill="#161616" stroke="#161616"></path><path d="M836.3 158L718.7 150L726.7 249Z" fill="#0d0d0d" stroke="#0d0d0d"></path><path d="M718.7 150L709.7 124L641 173Z" fill="#2c2c2c" stroke="#2c2c2c"></path><path d="M181.3 295L357 284L329 206Z" fill="#4c4c4c" stroke="#4c4c4c"></path><path d="M621 0L561.3 103L643 77Z" fill="#3c3c3c" stroke="#3c3c3c"></path><path d="M621 0L534.3 0L561.3 103Z" fill="#242424" stroke="#242424"></path><path d="M448.7 77L428.7 0L330 88Z" fill="#3c3c3c" stroke="#3c3c3c"></path><path d="M534.3 0L428.7 0L448.7 77Z" fill="#000000" stroke="#000000"></path><path d="M312 471L300 540L457.7 540Z" fill="#0d0d0d" stroke="#0d0d0d"></path><path d="M184.3 459L300 540L312 471Z" fill="#4c4c4c" stroke="#4c4c4c"></path><path d="M210.3 151L181.3 295L329 206Z" fill="#1d1d1d" stroke="#1d1d1d"></path><path d="M615 540L740.7 486L606 458Z" fill="#4c4c4c" stroke="#4c4c4c"></path><path d="M239.3 97L210.3 151L329 206Z" fill="#000000" stroke="#000000"></path><path d="M239.3 97L329 206L330 88Z" fill="#242424" stroke="#242424"></path><path d="M282 0L239.3 97L330 88Z" fill="#343434" stroke="#343434"></path><path d="M709.7 0L621 0L643 77Z" fill="#161616" stroke="#161616"></path><path d="M830.3 343L822.3 257L752.7 352Z" fill="#1d1d1d" stroke="#1d1d1d"></path><path d="M752.7 352L822.3 257L726.7 249Z" fill="#242424" stroke="#242424"></path><path d="M718.7 150L836.3 158L709.7 124Z" fill="#343434" stroke="#343434"></path><path d="M709.7 124L709.7 0L643 77Z" fill="#1d1d1d" stroke="#1d1d1d"></path><path d="M828.3 485L830.3 343L752.7 352Z" fill="#4c4c4c" stroke="#4c4c4c"></path><path d="M105.7 479L184.3 459L197.3 366Z" fill="#2c2c2c" stroke="#2c2c2c"></path><path d="M197.3 366L184.3 459L312 471Z" fill="#0d0d0d" stroke="#0d0d0d"></path><path d="M428.7 0L282 0L330 88Z" fill="#2c2c2c" stroke="#2c2c2c"></path><path d="M136.7 121L110.7 238L210.3 151Z" fill="#4c4c4c" stroke="#4c4c4c"></path><path d="M860.3 52L709.7 0L709.7 124Z" fill="#444444" stroke="#444444"></path><path d="M615 540L769.7 540L740.7 486Z" fill="#0d0d0d" stroke="#0d0d0d"></path><path d="M740.7 486L828.3 485L752.7 352Z" fill="#4c4c4c" stroke="#4c4c4c"></path><path d="M822.3 257L836.3 158L726.7 249Z" fill="#4c4c4c" stroke="#4c4c4c"></path><path d="M960 204L836.3 158L822.3 257Z" fill="#242424" stroke="#242424"></path><path d="M210.3 151L110.7 238L181.3 295Z" fill="#161616" stroke="#161616"></path><path d="M181.3 295L98.7 330L197.3 366Z" fill="#555555" stroke="#555555"></path><path d="M136.7 121L210.3 151L239.3 97Z" fill="#444444" stroke="#444444"></path><path d="M769.7 540L828.3 485L740.7 486Z" fill="#0d0d0d" stroke="#0d0d0d"></path><path d="M960 56L860.3 52L836.3 158Z" fill="#000000" stroke="#000000"></path><path d="M105.7 479L183.3 540L184.3 459Z" fill="#2c2c2c" stroke="#2c2c2c"></path><path d="M184.3 459L183.3 540L300 540Z" fill="#1d1d1d" stroke="#1d1d1d"></path><path d="M110.7 238L98.7 330L181.3 295Z" fill="#4c4c4c" stroke="#4c4c4c"></path><path d="M211.3 0L136.7 121L239.3 97Z" fill="#3c3c3c" stroke="#3c3c3c"></path><path d="M282 0L211.3 0L239.3 97Z" fill="#444444" stroke="#444444"></path><path d="M769.7 540L834.3 540L828.3 485Z" fill="#161616" stroke="#161616"></path><path d="M960 381L960 285L830.3 343Z" fill="#4c4c4c" stroke="#4c4c4c"></path><path d="M98.7 330L105.7 479L197.3 366Z" fill="#161616" stroke="#161616"></path><path d="M0 71L71.7 155L136.7 121Z" fill="#161616" stroke="#161616"></path><path d="M136.7 121L71.7 155L110.7 238Z" fill="#3c3c3c" stroke="#3c3c3c"></path><path d="M0 239L0 326L98.7 330Z" fill="#242424" stroke="#242424"></path><path d="M0 471L73.7 540L105.7 479Z" fill="#242424" stroke="#242424"></path><path d="M960 285L822.3 257L830.3 343Z" fill="#1d1d1d" stroke="#1d1d1d"></path><path d="M836.3 158L860.3 52L709.7 124Z" fill="#000000" stroke="#000000"></path><path d="M960 381L830.3 343L828.3 485Z" fill="#2c2c2c" stroke="#2c2c2c"></path><path d="M960 475L960 381L828.3 485Z" fill="#242424" stroke="#242424"></path><path d="M960 285L960 204L822.3 257Z" fill="#242424" stroke="#242424"></path><path d="M0 471L105.7 479L98.7 330Z" fill="#444444" stroke="#444444"></path><path d="M105.7 479L73.7 540L183.3 540Z" fill="#343434" stroke="#343434"></path><path d="M960 56L870.3 0L860.3 52Z" fill="#2c2c2c" stroke="#2c2c2c"></path><path d="M860.3 52L870.3 0L709.7 0Z" fill="#555555" stroke="#555555"></path><path d="M211.3 0L100.7 0L136.7 121Z" fill="#4c4c4c" stroke="#4c4c4c"></path><path d="M0 239L98.7 330L110.7 238Z" fill="#0d0d0d" stroke="#0d0d0d"></path><path d="M0 239L110.7 238L0 204Z" fill="#000000" stroke="#000000"></path><path d="M0 204L110.7 238L71.7 155Z" fill="#242424" stroke="#242424"></path><path d="M0 71L0 204L71.7 155Z" fill="#1d1d1d" stroke="#1d1d1d"></path><path d="M834.3 540L960 475L828.3 485Z" fill="#242424" stroke="#242424"></path><path d="M0 326L0 471L98.7 330Z" fill="#3c3c3c" stroke="#3c3c3c"></path><path d="M960 204L960 56L836.3 158Z" fill="#3c3c3c" stroke="#3c3c3c"></path><path d="M834.3 540L960 540L960 475Z" fill="#4c4c4c" stroke="#4c4c4c"></path><path d="M100.7 0L0 71L136.7 121Z" fill="#1d1d1d" stroke="#1d1d1d"></path><path d="M0 471L0 540L73.7 540Z" fill="#343434" stroke="#343434"></path><path d="M960 56L960 0L870.3 0Z" fill="#343434" stroke="#343434"></path><path d="M100.7 0L0 0L0 71Z" fill="#4c4c4c" stroke="#4c4c4c"></path></g></svg>